<?xml version="1.0" standalone="no"?>
<!DOCTYPE svg PUBLIC "-//W3C//DTD SVG 20010904//EN"
 "http://www.w3.org/TR/2001/REC-SVG-20010904/DTD/svg10.dtd">
<svg version="1.0" xmlns="http://www.w3.org/2000/svg"
 width="192.000000pt" height="192.000000pt" viewBox="0 0 192.000000 192.000000"
 preserveAspectRatio="xMidYMid meet">

<g transform="translate(0.000000,192.000000) scale(0.100000,-0.100000)"
fill="#000000" stroke="none">
<path d="M1005 1246 c-72 -17 -126 -39 -174 -71 -19 -13 -38 -22 -43 -19 -4 3
-8 -3 -8 -12 0 -10 -7 -25 -16 -35 -25 -27 -29 -91 -9 -133 22 -45 82 -108
155 -162 68 -50 244 -154 260 -154 39 0 310 180 374 248 16 17 33 29 37 26 5
-3 6 2 3 11 -4 8 -1 22 6 30 18 21 7 110 -17 143 -30 41 -107 89 -181 113 -86
28 -296 36 -387 15z m326 -85 c81 -30 119 -67 126 -119 5 -40 3 -45 -35 -81
-52 -50 -115 -72 -228 -78 -76 -5 -104 -2 -163 16 -128 39 -186 124 -131 194
24 31 109 74 170 87 67 14 198 4 261 -19z"/>
<path d="M1030 1035 l0 -85 39 0 c37 0 40 2 43 33 3 28 7 32 37 35 59 6 81 -5
81 -38 0 -28 2 -30 40 -30 l40 0 0 85 0 85 -40 0 c-37 0 -40 -2 -40 -29 0 -26
-4 -29 -43 -35 -58 -9 -77 0 -77 35 0 27 -3 29 -40 29 l-40 0 0 -85z"/>
<path d="M250 548 c-5 -13 -18 -45 -29 -72 -12 -27 -21 -50 -21 -52 0 -2 17
-4 39 -4 34 0 41 4 55 35 15 31 21 35 59 37 l42 1 -37 4 c-29 3 -38 9 -38 22
0 27 20 39 70 44 26 2 7 4 -43 5 -82 2 -88 1 -97 -20z"/>
<path d="M490 560 c-19 -12 -7 -22 25 -22 30 0 40 6 30 21 -8 13 -35 14 -55 1z"/>
<path d="M882 521 c-12 -27 -24 -61 -28 -75 -6 -25 -4 -26 35 -26 35 0 41 3
47 25 3 14 16 32 27 40 12 8 16 15 9 15 -8 0 -9 7 -2 26 15 40 13 44 -28 44
-36 0 -39 -3 -60 -49z"/>
<path d="M1050 535 c-8 -19 -17 -35 -21 -35 -4 0 -8 -8 -8 -17 1 -10 -2 -28
-6 -40 -7 -21 -4 -23 32 -23 39 0 41 2 58 48 10 26 22 51 26 57 5 5 9 17 9 27
0 14 -8 18 -38 18 -34 0 -40 -4 -52 -35z"/>
<path d="M726 513 c-13 -4 -15 -7 -7 -13 10 -5 9 -15 -3 -44 l-15 -36 38 0
c35 0 40 4 56 40 10 22 16 42 14 44 -8 8 -65 14 -83 9z"/>
<path d="M1228 511 c-65 -13 -91 -58 -49 -81 25 -13 83 -14 62 -1 -22 14 5 69
36 77 43 11 51 -27 15 -68 -14 -17 -13 -18 12 -18 43 0 86 27 86 54 0 13 -7
26 -15 30 -28 10 -110 15 -147 7z"/>
<path d="M1488 513 c-35 -6 -57 -31 -37 -44 8 -5 23 -9 34 -9 28 0 49 -16 40
-30 -5 -8 5 -10 37 -8 35 2 43 7 43 23 0 15 -10 21 -42 28 -27 5 -43 14 -43
23 0 17 41 19 57 3 7 -7 19 -8 30 -4 37 16 -48 29 -119 18z"/>
<path d="M442 471 c-16 -52 -17 -51 23 -51 30 0 37 4 50 36 21 51 20 54 -23
54 -36 0 -40 -2 -50 -39z"/>
<path d="M590 491 c-5 -11 -14 -31 -20 -45 -9 -25 -8 -26 28 -26 34 0 40 4 55
35 24 49 22 55 -18 55 -24 0 -37 -6 -45 -19z"/>
<path d="M1666 448 c-21 -48 -24 -63 -14 -70 7 -4 19 -6 26 -3 8 3 20 5 28 5
8 0 14 7 14 15 0 9 7 18 16 22 8 3 13 12 9 21 -3 8 1 25 9 37 18 28 12 35 -29
35 -30 0 -34 -5 -59 -62z"/>
<path d="M1808 502 c19 -13 4 -62 -22 -72 -16 -7 -11 -9 25 -9 53 -1 92 27 87
62 -3 19 -10 22 -53 25 -31 1 -45 -1 -37 -6z"/>
<path d="M1425 430 c-4 -6 7 -10 25 -10 18 0 29 4 25 10 -3 6 -15 10 -25 10
-10 0 -22 -4 -25 -10z"/>
<path d="M1080 132 c0 -4 10 -9 22 -9 18 -2 20 0 8 7 -18 12 -30 13 -30 2z"/>
<path d="M982 114 c-17 -18 -15 -23 7 -17 22 6 36 30 17 30 -6 0 -17 -6 -24
-13z"/>
<path d="M505 30 c-3 -5 1 -10 9 -10 9 0 16 5 16 10 0 6 -4 10 -9 10 -6 0 -13
-4 -16 -10z"/>
</g>
</svg>
